<svg width="20" height="15" viewBox="0 0 20 15" fill="none" xmlns="http://www.w3.org/2000/svg">
<path fill-rule="evenodd" clip-rule="evenodd" d="M2.02296 4.87397C2.00233 5.06013 2.0876 5.24444 2.26 5.38634C2.43238 5.52825 2.67779 5.61613 2.94222 5.63066C3.20665 5.64518 3.46844 5.58515 3.67 5.46378L9 2.23942V10.5608C9 10.9496 9.44772 11.2648 10 11.2648C10.5523 11.2648 11 10.9496 11 10.5608V2.23942L16.37 5.46378C16.7897 5.71651 17.421 5.68184 17.78 5.38634C18.139 5.09084 18.0897 4.64642 17.67 4.39369L10.67 0.169643C10.6202 0.144423 10.5665 0.123173 10.51 0.106283L10.39 0.0499622C10.1524 -0.0166541 9.88759 -0.0166541 9.65 0.0499622L9.53 0.106283C9.4735 0.123173 9.41984 0.144423 9.37 0.169643L2.37 4.39369C2.16842 4.51505 2.04359 4.68781 2.02296 4.87397ZM18 11.2648C18 10.876 18.4477 10.5608 19 10.5608C19.5523 10.5608 20 10.876 20 11.2648V12.6728C19.9093 13.5031 18.8909 14.1293 17.71 14.0808H2.29C1.10915 14.1293 0.0906584 13.5031 0 12.6728V11.2648C0 10.876 0.447715 10.5608 1 10.5608C1.55228 10.5608 2 10.876 2 11.2648V12.6235C2.08891 12.6575 2.18888 12.6745 2.29 12.6728H17.71C17.8111 12.6745 17.9111 12.6575 18 12.6235V11.2648Z" fill="#565656"/>
</svg>
