<svg width="31" height="31" viewBox="0 0 31 31" fill="none" xmlns="http://www.w3.org/2000/svg">
<path fill-rule="evenodd" clip-rule="evenodd" d="M21.9583 10.3333C21.9583 13.9003 19.0669 16.7917 15.5 16.7917C11.9331 16.7917 9.04167 13.9003 9.04167 10.3333C9.04167 6.7664 11.9331 3.875 15.5 3.875C19.0669 3.875 21.9583 6.7664 21.9583 10.3333ZM20.6667 10.3333C20.6667 11.7036 20.1223 13.0178 19.1534 13.9867C18.1844 14.9557 16.8703 15.5 15.5 15.5C14.1297 15.5 12.8156 14.9557 11.8466 13.9867C10.8777 13.0178 10.3333 11.7036 10.3333 10.3333C10.3333 8.96305 10.8777 7.64889 11.8466 6.67995C12.8156 5.71101 14.1297 5.16667 15.5 5.16667C16.8703 5.16667 18.1844 5.71101 19.1534 6.67995C20.1223 7.64889 20.6667 8.96305 20.6667 10.3333ZM11.5695 18.6355L11.5766 18.6497L11.625 18.7447H19.2129C19.3608 18.4644 19.696 18.0175 20.0208 18.0917C20.7506 18.2577 21.4856 18.4889 22.1915 18.7737L22.2128 18.7634L22.2199 18.7776L22.2251 18.7873C24.8827 19.8671 27.125 21.6974 27.125 23.6181V27.125H3.875V23.6181C3.875 21.1801 7.48908 18.8861 10.9792 18.0917C11.264 18.0271 11.4332 18.363 11.5695 18.6355ZM21.1213 19.7515C20.8443 19.6544 20.5641 19.5667 20.2811 19.4887L19.9931 20.0363H10.8455L10.5781 19.5281L10.3456 19.5978C10.3409 19.64 10.3374 19.6882 10.3353 19.7425C10.3269 19.9653 10.3437 20.2294 10.3805 20.4981C10.418 20.7784 10.4785 21.0551 10.5613 21.3254C11.015 21.3792 11.4351 21.5915 11.7474 21.9249C12.0597 22.2583 12.2442 22.6914 12.2682 23.1476C12.2922 23.6038 12.1542 24.0539 11.8786 24.4182C11.603 24.7826 11.2076 25.0379 10.762 25.1389C10.3165 25.24 9.8496 25.1804 9.44375 24.9707C9.03791 24.7609 8.71924 24.4145 8.54402 23.9925C8.36881 23.5706 8.34832 23.1004 8.48617 22.6648C8.62402 22.2293 8.91135 21.8564 9.29742 21.6122L9.29225 21.5941C9.20601 21.2922 9.1419 20.9844 9.10044 20.6731C9.07305 20.4743 9.05495 20.2743 9.04619 20.0738C8.24794 20.4148 7.50329 20.8268 6.87942 21.2815C5.63813 22.1882 5.16667 23.0356 5.16667 23.6181V25.8333H25.8333V23.6181C25.8333 23.0349 25.3619 22.1876 24.1206 21.2821C23.5793 20.8931 23.0028 20.5554 22.3988 20.2734C22.3724 20.6234 22.3188 20.9708 22.2386 21.3125H22.6042C22.7241 21.3126 22.8416 21.346 22.9436 21.4091C23.0455 21.4722 23.1279 21.5624 23.1815 21.6696L23.8274 22.9613C23.8726 23.0511 23.8958 23.1499 23.8958 23.25V24.5417C23.8958 24.713 23.8278 24.8772 23.7067 24.9983C23.5856 25.1195 23.4213 25.1875 23.25 25.1875H21.9583V23.8958H22.6042V23.4024L22.205 22.6042H20.42L20.0208 23.4024V23.8958H20.6667V25.1875H19.375C19.2037 25.1875 19.0394 25.1195 18.9183 24.9983C18.7972 24.8772 18.7292 24.713 18.7292 24.5417V23.25C18.7292 23.1499 18.7524 23.0511 18.7976 22.9613L19.4435 21.6696C19.4971 21.5624 19.5795 21.4722 19.6814 21.4091C19.7834 21.346 19.9009 21.3126 20.0208 21.3125H20.9005L20.9244 21.2324C20.9851 21.0251 21.0393 20.7674 21.0761 20.4987C21.1123 20.2327 21.1291 19.9724 21.1213 19.7515ZM10.9792 23.25C10.9792 23.6207 10.6808 23.9055 10.3333 23.9055C9.98587 23.9055 9.6875 23.6214 9.6875 23.25C9.6875 22.8793 9.98587 22.5945 10.3333 22.5945C10.6808 22.5945 10.9792 22.8786 10.9792 23.25Z" fill="#4682FA"/>
</svg>
