<svg width="14" height="14" viewBox="0 0 14 14" fill="none" xmlns="http://www.w3.org/2000/svg">
<g clip-path="url(#clip0_973_2027)">
<path d="M7.0013 12.8333C10.223 12.8333 12.8346 10.2216 12.8346 6.99996C12.8346 3.7783 10.223 1.16663 7.0013 1.16663C3.77964 1.16663 1.16797 3.7783 1.16797 6.99996C1.16797 10.2216 3.77964 12.8333 7.0013 12.8333Z" stroke="#A97007" stroke-width="1.5"/>
<path d="M7 2.625C7.86529 2.625 8.71115 2.88159 9.43062 3.36232C10.1501 3.84305 10.7108 4.52633 11.042 5.32576C11.3731 6.12519 11.4597 7.00485 11.2909 7.85352C11.1221 8.70219 10.7054 9.48174 10.0936 10.0936C9.48174 10.7054 8.70219 11.1221 7.85352 11.2909C7.00485 11.4597 6.12519 11.3731 5.32576 11.042C4.52633 10.7108 3.84305 10.1501 3.36232 9.43062C2.88159 8.71115 2.625 7.86529 2.625 7H7V2.625Z" fill="#A97007"/>
</g>
<defs>
<clipPath id="clip0_973_2027">
<rect width="14" height="14" fill="white"/>
</clipPath>
</defs>
</svg>
