<svg width="204" height="204" viewBox="0 0 204 204" fill="none" xmlns="http://www.w3.org/2000/svg">
<path d="M87.0655 138.669L51 102.595L63.019 90.5758L87.0655 114.614L135.142 66.5293L147.169 78.5568L87.0655 138.669Z" fill="#4682FA"/>
<path fill-rule="evenodd" clip-rule="evenodd" d="M8.5 102C8.5 50.3625 50.3625 8.5 102 8.5C153.637 8.5 195.5 50.3625 195.5 102C195.5 153.637 153.637 195.5 102 195.5C50.3625 195.5 8.5 153.637 8.5 102ZM102 178.5C91.9539 178.5 82.0061 176.521 72.7247 172.677C63.4433 168.832 55.01 163.197 47.9063 156.094C40.8026 148.99 35.1677 140.557 31.3232 131.275C27.4787 121.994 25.5 112.046 25.5 102C25.5 91.9539 27.4787 82.0061 31.3232 72.7247C35.1677 63.4433 40.8026 55.01 47.9063 47.9063C55.01 40.8026 63.4433 35.1677 72.7247 31.3232C82.0061 27.4787 91.9539 25.5 102 25.5C122.289 25.5 141.747 33.5598 156.094 47.9063C170.44 62.2529 178.5 81.7109 178.5 102C178.5 122.289 170.44 141.747 156.094 156.094C141.747 170.44 122.289 178.5 102 178.5Z" fill="#4682FA"/>
</svg>
