<svg width="12" height="12" viewBox="0 0 12 12" fill="none" xmlns="http://www.w3.org/2000/svg">
<path d="M9.21876 2.47691H8.24976V1.77291C8.24976 1.64191 8.13476 1.51691 7.99976 1.52291C7.93386 1.52419 7.87101 1.55094 7.8244 1.59755C7.77779 1.64416 7.75104 1.70701 7.74976 1.77291V2.47691H4.24976V1.77291C4.24976 1.64191 4.13476 1.51691 3.99976 1.52291C3.93386 1.52419 3.87101 1.55094 3.8244 1.59755C3.77779 1.64416 3.75104 1.70701 3.74976 1.77291V2.47691H2.78076C2.44936 2.47731 2.13165 2.60913 1.89732 2.84347C1.66298 3.0778 1.53116 3.39551 1.53076 3.72691V9.22691C1.53076 9.91641 2.09176 10.4769 2.78076 10.4769H9.21826C9.90776 10.4769 10.4683 9.91641 10.4683 9.22691V3.72691C10.4683 3.39548 10.3366 3.07761 10.1023 2.84321C9.86801 2.6088 9.5502 2.47705 9.21876 2.47691ZM2.78076 2.97691H3.74976V3.27291C3.74976 3.40391 3.86476 3.52891 3.99976 3.52291C4.13526 3.51691 4.24976 3.41291 4.24976 3.27291V2.97691H7.74976V3.27291C7.74976 3.40391 7.86476 3.52891 7.99976 3.52291C8.13526 3.51691 8.24976 3.41291 8.24976 3.27291V2.97691H9.21826C9.63176 2.97691 9.96826 3.31341 9.96826 3.72691V4.51891H2.03076V3.72691C2.03076 3.31341 2.36726 2.97691 2.78076 2.97691ZM9.21876 9.97691H2.78076C2.36726 9.97691 2.03076 9.64041 2.03076 9.22691V5.01891H9.96826V9.22691C9.96826 9.42574 9.88931 9.61643 9.74877 9.75707C9.60822 9.8977 9.41759 9.97678 9.21876 9.97691Z" fill="#565656"/>
</svg>
