<svg width="24" height="26" viewBox="0 0 24 26" fill="none" xmlns="http://www.w3.org/2000/svg">
<path d="M16.8909 22.6667H17.9818V18.4167H16.8909V22.6667ZM17.4363 17.2451C17.5884 17.264 17.7173 17.2158 17.8231 17.1006C17.9279 16.9863 17.9803 16.8527 17.9803 16.6997C17.9803 16.5467 17.9237 16.4177 17.8103 16.3129C17.697 16.2081 17.5723 16.1557 17.4363 16.1557C17.2833 16.1557 17.1539 16.2081 17.0482 16.3129C16.9433 16.4187 16.8909 16.5476 16.8909 16.6997C16.8909 16.8347 16.9433 16.9594 17.0482 17.0737C17.1539 17.1879 17.2833 17.2451 17.4363 17.2451ZM1.41667 1.41667V10.4352V10.353V24.0833V1.41667ZM4.95833 14.875H9.59225C9.74336 14.6228 9.90392 14.3787 10.0739 14.1426C10.2439 13.9065 10.4234 13.6784 10.6123 13.4583H4.95833V14.875ZM4.95833 20.5417H8.44333C8.40839 20.3056 8.39092 20.0742 8.39092 19.8475C8.39092 19.6208 8.39894 19.38 8.415 19.125H4.95833V20.5417ZM2.28933 25.5C1.63672 25.5 1.09225 25.2818 0.655916 24.8455C0.219583 24.4092 0.000944444 23.8647 0 23.2121V2.28792C0 1.63625 0.218639 1.09225 0.655916 0.655917C1.09319 0.219583 1.63767 0.000944444 2.28933 0H13.4583L19.8333 6.375V10.6958C19.5849 10.6269 19.3469 10.5702 19.1193 10.5258C18.8927 10.4833 18.6584 10.4531 18.4167 10.4352V7.08333H12.75V1.41667H2.28933C2.07117 1.41667 1.87094 1.50733 1.68867 1.68867C1.50639 1.87 1.41572 2.06975 1.41667 2.28792V23.2121C1.41667 23.4293 1.50733 23.6291 1.68867 23.8113C1.87 23.9936 2.06975 24.0843 2.28792 24.0833H9.70133C9.85244 24.3544 10.013 24.608 10.183 24.8441C10.353 25.0802 10.5414 25.2988 10.7483 25.5H2.28933ZM17.4363 13.7303C19.0136 13.7303 20.3523 14.2805 21.4526 15.3807C22.5529 16.481 23.103 17.8198 23.103 19.397C23.103 20.9761 22.5529 22.3153 21.4526 23.4147C20.3532 24.514 19.0145 25.0637 17.4363 25.0637C15.8582 25.0637 14.5189 24.514 13.4187 23.4147C12.3184 22.3153 11.7687 20.9761 11.7697 19.397C11.7697 17.8198 12.3193 16.481 13.4187 15.3807C14.5189 14.2805 15.8582 13.7303 17.4363 13.7303Z" fill="#252525"/>
</svg>
