<svg width="95" height="95" viewBox="0 0 95 95" fill="none" xmlns="http://www.w3.org/2000/svg">
<path d="M47.5 83.125C54.546 83.125 61.4337 81.0356 67.2922 77.1211C73.1507 73.2066 77.7168 67.6427 80.4132 61.1331C83.1096 54.6235 83.8151 47.4605 82.4405 40.5499C81.0659 33.6394 77.6729 27.2916 72.6907 22.3093C67.7084 17.3271 61.3607 13.9341 54.4501 12.5595C47.5395 11.1849 40.3765 11.8904 33.8669 14.5868C27.3573 17.2832 21.7934 21.8493 17.8789 27.7078C13.9644 33.5663 11.875 40.4541 11.875 47.5C11.875 53.39 13.3 58.9436 15.8333 63.8361L11.875 83.125L31.164 79.1667C36.0565 81.7 41.614 83.125 47.5 83.125Z" stroke="#4682FA" stroke-width="2.5" stroke-linecap="round" stroke-linejoin="round"/>
</svg>
