<svg width="18" height="17" viewBox="0 0 18 17" fill="none" xmlns="http://www.w3.org/2000/svg">
<g filter="url(#filter0_d_328_2363)">
<path d="M13.89 2.88992C13.9562 2.81884 13.9923 2.72481 13.9906 2.62766C13.9889 2.53051 13.9495 2.43782 13.8808 2.36911C13.8121 2.30041 13.7194 2.26105 13.6223 2.25934C13.5251 2.25762 13.4311 2.29368 13.36 2.35992L9.61 6.10992C9.57316 6.14425 9.54361 6.18565 9.52311 6.23165C9.50261 6.27765 9.49159 6.32731 9.4907 6.37766C9.48982 6.42801 9.49908 6.47803 9.51794 6.52472C9.5368 6.57142 9.56487 6.61383 9.60048 6.64944C9.63609 6.68505 9.67851 6.71312 9.7252 6.73198C9.7719 6.75084 9.82191 6.76011 9.87226 6.75922C9.92261 6.75833 9.97227 6.74731 10.0183 6.72681C10.0643 6.70632 10.1057 6.67677 10.14 6.63992L13.89 2.88992ZM13.9735 3.51392C13.9912 3.59826 14 3.68526 14 3.77492V7.22492C14 7.39236 13.967 7.55815 13.9029 7.71284C13.8389 7.86753 13.745 8.00809 13.6266 8.12648C13.5082 8.24488 13.3676 8.3388 13.2129 8.40287C13.0582 8.46694 12.8924 8.49992 12.725 8.49992H5.275C5.10756 8.49992 4.94177 8.46694 4.78708 8.40287C4.63239 8.3388 4.49183 8.24488 4.37344 8.12648C4.25504 8.00809 4.16113 7.86753 4.09705 7.71284C4.03298 7.55815 4 7.39236 4 7.22492V3.77492C4 3.43677 4.13433 3.11247 4.37344 2.87336C4.61255 2.63425 4.93685 2.49992 5.275 2.49992H12.5125L11.7625 3.24992H5.275C4.985 3.24992 4.75 3.48492 4.75 3.77492V7.22492C4.75 7.51492 4.985 7.74992 5.275 7.74992H12.725C13.015 7.74992 13.25 7.51492 13.25 7.22492V4.23742L13.9735 3.51392ZM5.25 4.62492C5.25 4.52547 5.28951 4.43008 5.35983 4.35976C5.43016 4.28943 5.52554 4.24992 5.625 4.24992H6.625C6.72446 4.24992 6.81984 4.28943 6.89017 4.35976C6.96049 4.43008 7 4.52547 7 4.62492C7 4.72438 6.96049 4.81976 6.89017 4.89009C6.81984 4.96041 6.72446 4.99992 6.625 4.99992H5.625C5.52554 4.99992 5.43016 4.96041 5.35983 4.89009C5.28951 4.81976 5.25 4.72438 5.25 4.62492ZM5.25 6.37492C5.25 6.27547 5.28951 6.18008 5.35983 6.10976C5.43016 6.03943 5.52554 5.99992 5.625 5.99992H8.125C8.22446 5.99992 8.31984 6.03943 8.39016 6.10976C8.46049 6.18008 8.5 6.27547 8.5 6.37492C8.5 6.47438 8.46049 6.56976 8.39016 6.64009C8.31984 6.71041 8.22446 6.74992 8.125 6.74992H5.625C5.52554 6.74992 5.43016 6.71041 5.35983 6.64009C5.28951 6.56976 5.25 6.47438 5.25 6.37492Z" fill="#565656"/>
</g>
<defs>
<filter id="filter0_d_328_2363" x="-1" y="0" width="20" height="20" filterUnits="userSpaceOnUse" color-interpolation-filters="sRGB">
<feFlood flood-opacity="0" result="BackgroundImageFix"/>
<feColorMatrix in="SourceAlpha" type="matrix" values="0 0 0 0 0 0 0 0 0 0 0 0 0 0 0 0 0 0 127 0" result="hardAlpha"/>
<feOffset dy="4"/>
<feGaussianBlur stdDeviation="2"/>
<feComposite in2="hardAlpha" operator="out"/>
<feColorMatrix type="matrix" values="0 0 0 0 0 0 0 0 0 0 0 0 0 0 0 0 0 0 0.25 0"/>
<feBlend mode="normal" in2="BackgroundImageFix" result="effect1_dropShadow_328_2363"/>
<feBlend mode="normal" in="SourceGraphic" in2="effect1_dropShadow_328_2363" result="shape"/>
</filter>
</defs>
</svg>
