<svg width="35" height="35" viewBox="0 0 35 35" fill="none" xmlns="http://www.w3.org/2000/svg">
<path d="M17.5 7C16.5717 7 15.6815 7.36875 15.0251 8.02513C14.3687 8.6815 14 9.57174 14 10.5C14 11.4283 14.3687 12.3185 15.0251 12.9749C15.6815 13.6313 16.5717 14 17.5 14C18.4283 14 19.3185 13.6313 19.9749 12.9749C20.6313 12.3185 21 11.4283 21 10.5C21 9.57174 20.6313 8.6815 19.9749 8.02513C19.3185 7.36875 18.4283 7 17.5 7ZM15.75 10.5C15.75 10.0359 15.9344 9.59075 16.2626 9.26256C16.5908 8.93437 17.0359 8.75 17.5 8.75C17.9641 8.75 18.4092 8.93437 18.7374 9.26256C19.0656 9.59075 19.25 10.0359 19.25 10.5C19.25 10.9641 19.0656 11.4092 18.7374 11.7374C18.4092 12.0656 17.9641 12.25 17.5 12.25C17.0359 12.25 16.5908 12.0656 16.2626 11.7374C15.9344 11.4092 15.75 10.9641 15.75 10.5ZM11.375 25.375C11.1429 25.375 10.9204 25.4672 10.7563 25.6313C10.5922 25.7954 10.5 26.0179 10.5 26.25C10.5 26.4821 10.5922 26.7046 10.7563 26.8687C10.9204 27.0328 11.1429 27.125 11.375 27.125H23.625C23.8571 27.125 24.0796 27.0328 24.2437 26.8687C24.4078 26.7046 24.5 26.4821 24.5 26.25C24.5 26.0179 24.4078 25.7954 24.2437 25.6313C24.0796 25.4672 23.8571 25.375 23.625 25.375H11.375ZM7 7C7 6.07174 7.36875 5.1815 8.02513 4.52513C8.6815 3.86875 9.57174 3.5 10.5 3.5H24.5C25.4283 3.5 26.3185 3.86875 26.9749 4.52513C27.6313 5.1815 28 6.07174 28 7V28C28 28.9283 27.6313 29.8185 26.9749 30.4749C26.3185 31.1313 25.4283 31.5 24.5 31.5H10.5C9.57174 31.5 8.6815 31.1313 8.02513 30.4749C7.36875 29.8185 7 28.9283 7 28V7ZM24.5 5.25H10.5C10.0359 5.25 9.59075 5.43437 9.26256 5.76256C8.93437 6.09075 8.75 6.53587 8.75 7V21H12.25V17.5C12.25 17.0359 12.4344 16.5908 12.7626 16.2626C13.0908 15.9344 13.5359 15.75 14 15.75H21C21.4641 15.75 21.9092 15.9344 22.2374 16.2626C22.5656 16.5908 22.75 17.0359 22.75 17.5V21H26.25V7C26.25 6.53587 26.0656 6.09075 25.7374 5.76256C25.4092 5.43437 24.9641 5.25 24.5 5.25ZM21 17.5H14V21H21V17.5ZM8.75 22.75V28C8.75 28.4641 8.93437 28.9093 9.26256 29.2374C9.59075 29.5656 10.0359 29.75 10.5 29.75H24.5C24.9641 29.75 25.4092 29.5656 25.7374 29.2374C26.0656 28.9093 26.25 28.4641 26.25 28V22.75H8.75Z" fill="#3868C8"/>
</svg>
