<svg width="12" height="12" viewBox="0 0 12 12" fill="none" xmlns="http://www.w3.org/2000/svg">
<path d="M5.75 1.5C7.00978 1.5 8.21796 2.00044 9.10876 2.89124C9.99955 3.78204 10.5 4.99022 10.5 6.25C10.5 7.50978 9.99955 8.71796 9.10876 9.60876C8.21796 10.4996 7.00978 11 5.75 11C4.49022 11 3.28204 10.4996 2.39124 9.60876C1.50044 8.71796 1 7.50978 1 6.25C1 4.99022 1.50044 3.78204 2.39124 2.89124C3.28204 2.00044 4.49022 1.5 5.75 1.5ZM5.75 2C4.62283 2 3.54183 2.44777 2.7448 3.2448C1.94777 4.04183 1.5 5.12283 1.5 6.25C1.5 7.37717 1.94777 8.45817 2.7448 9.2552C3.54183 10.0522 4.62283 10.5 5.75 10.5C6.30812 10.5 6.86077 10.3901 7.3764 10.1765C7.89204 9.96291 8.36056 9.64985 8.7552 9.2552C9.14985 8.86056 9.46291 8.39204 9.67649 7.8764C9.89007 7.36077 10 6.80812 10 6.25C10 5.12283 9.55223 4.04183 8.7552 3.2448C7.95817 2.44777 6.87717 2 5.75 2ZM5.5 3.5H6V6.21L8.35 7.565L8.1 8L5.5 6.5V3.5Z" fill="#717171"/>
</svg>
