<svg width="24" height="24" viewBox="0 0 24 24" fill="none" xmlns="http://www.w3.org/2000/svg">
<path d="M9.60031 15.6501L12.0003 13.8001L14.4003 15.6501L13.5003 12.6001L15.7503 11.0001H12.9503L12.0003 7.9001L11.0503 11.0001H8.25031L10.5003 12.6001L9.60031 15.6501ZM12.0003 16.3001L8.30031 19.1251C8.11697 19.2751 7.91697 19.3461 7.70031 19.3381C7.48364 19.3301 7.29197 19.2674 7.12531 19.1501C6.95864 19.0328 6.82964 18.8744 6.73831 18.6751C6.64697 18.4758 6.64264 18.2591 6.72531 18.0251L8.15031 13.4001L4.52531 10.8251C4.32531 10.6918 4.20031 10.5168 4.15031 10.3001C4.10031 10.0834 4.10864 9.88344 4.17531 9.7001C4.24197 9.51677 4.35864 9.3541 4.52531 9.2121C4.69197 9.0701 4.89197 8.99944 5.12531 9.0001H9.60031L11.0503 4.2001C11.1336 3.96677 11.263 3.78744 11.4383 3.6621C11.6136 3.53677 11.801 3.47444 12.0003 3.4751C12.1996 3.47577 12.3873 3.53844 12.5633 3.6631C12.7393 3.78777 12.8683 3.96677 12.9503 4.2001L14.4003 9.0001H18.8753C19.1086 9.0001 19.3086 9.0711 19.4753 9.2131C19.642 9.3551 19.7586 9.51744 19.8253 9.7001C19.892 9.88277 19.9003 10.0828 19.8503 10.3001C19.8003 10.5174 19.6753 10.6924 19.4753 10.8251L15.8503 13.4001L17.2753 18.0251C17.3586 18.2584 17.3546 18.4751 17.2633 18.6751C17.172 18.8751 17.0426 19.0334 16.8753 19.1501C16.708 19.2668 16.5163 19.3294 16.3003 19.3381C16.0843 19.3468 15.8843 19.2758 15.7003 19.1251L12.0003 16.3001Z" fill="#252525"/>
</svg>
