<svg width="30" height="30" viewBox="0 0 30 30" fill="none" xmlns="http://www.w3.org/2000/svg">
<path d="M16.875 9.375H7.5V7.5H16.875V9.375ZM3.75 24.375H13.7256L12.7881 26.25H1.875V1.875H22.5V11.25H20.625V3.75H3.75V24.375ZM7.5 18.75H16.5381L15.6006 20.625H7.5V18.75ZM15 13.125V15H7.5V13.125H15ZM28.7549 27.29C28.8916 27.5635 28.96 27.8418 28.96 28.125C28.96 28.3789 28.9111 28.6182 28.8135 28.8428C28.7158 29.0674 28.584 29.2676 28.418 29.4434C28.252 29.6191 28.0518 29.7559 27.8174 29.8535C27.583 29.9512 27.3389 30 27.085 30H16.04C15.7861 30 15.5469 29.9512 15.3223 29.8535C15.0977 29.7559 14.8975 29.624 14.7217 29.458C14.5459 29.292 14.4092 29.0918 14.3115 28.8574C14.2139 28.623 14.165 28.3789 14.165 28.125C14.165 27.8418 14.2334 27.5635 14.3701 27.29L18.75 18.5303V15H16.875V13.125H26.25V15H24.375V18.5303L28.7549 27.29ZM25.21 24.375L22.5 18.9697V15H20.625V18.9697L17.915 24.375H25.21Z" fill="#252525"/>
</svg>
