<svg width="16" height="15" viewBox="0 0 16 15" fill="none" xmlns="http://www.w3.org/2000/svg">
<path d="M7.83136 12.5326L4.035 14.8195C3.86729 14.9262 3.69196 14.972 3.509 14.9567C3.32604 14.9415 3.16596 14.8805 3.02874 14.7738C2.89152 14.6671 2.7848 14.5338 2.70856 14.374C2.63233 14.2142 2.61709 14.0349 2.66283 13.8361L3.66909 9.51376L0.307254 6.60932C0.15479 6.4721 0.0596523 6.31568 0.0218412 6.14004C-0.0159699 5.9644 -0.0046876 5.79303 0.0556882 5.62593C0.116064 5.45883 0.207542 5.32161 0.330124 5.21427C0.452705 5.10694 0.620415 5.03833 0.833255 5.00845L5.26996 4.61966L6.98518 0.548871C7.06142 0.365914 7.17973 0.228696 7.34012 0.137218C7.50051 0.0457391 7.66426 0 7.83136 0C7.99846 0 8.16221 0.0457391 8.3226 0.137218C8.48299 0.228696 8.60131 0.365914 8.67754 0.548871L10.3928 4.61966L14.8295 5.00845C15.0429 5.03894 15.2106 5.10755 15.3326 5.21427C15.4546 5.321 15.546 5.45822 15.607 5.62593C15.668 5.79364 15.6796 5.96531 15.6418 6.14095C15.604 6.31659 15.5085 6.47271 15.3555 6.60932L11.9936 9.51376L12.9999 13.8361C13.0456 14.0343 13.0304 14.2136 12.9542 14.374C12.8779 14.5344 12.7712 14.6677 12.634 14.7738C12.4968 14.8799 12.3367 14.9409 12.1537 14.9567C11.9708 14.9726 11.7954 14.9269 11.6277 14.8195L7.83136 12.5326Z" fill="#FFED27"/>
</svg>
