<svg width="26" height="26" viewBox="0 0 26 26" fill="none" xmlns="http://www.w3.org/2000/svg">
<path d="M12.9993 2.16699C18.9826 2.16699 23.8327 7.01708 23.8327 13.0003C23.8327 18.9836 18.9826 23.8337 12.9993 23.8337C7.0161 23.8337 2.16602 18.9836 2.16602 13.0003C2.16602 7.01708 7.0161 2.16699 12.9993 2.16699ZM12.9993 4.33366C10.7008 4.33366 8.49641 5.24675 6.87109 6.87207C5.24577 8.49738 4.33268 10.7018 4.33268 13.0003C4.33268 15.2989 5.24577 17.5033 6.87109 19.1286C8.49641 20.7539 10.7008 21.667 12.9993 21.667C15.2979 21.667 17.5023 20.7539 19.1276 19.1286C20.7529 17.5033 21.666 15.2989 21.666 13.0003C21.666 10.7018 20.7529 8.49738 19.1276 6.87207C17.5023 5.24675 15.2979 4.33366 12.9993 4.33366ZM12.9993 16.2503C13.2867 16.2503 13.5622 16.3645 13.7654 16.5676C13.9685 16.7708 14.0827 17.0463 14.0827 17.3337C14.0827 17.621 13.9685 17.8965 13.7654 18.0997C13.5622 18.3029 13.2867 18.417 12.9993 18.417C12.712 18.417 12.4365 18.3029 12.2333 18.0997C12.0302 17.8965 11.916 17.621 11.916 17.3337C11.916 17.0463 12.0302 16.7708 12.2333 16.5676C12.4365 16.3645 12.712 16.2503 12.9993 16.2503ZM12.9993 6.50033C13.2867 6.50033 13.5622 6.61446 13.7654 6.81763C13.9685 7.02079 14.0827 7.29634 14.0827 7.58366V14.0837C14.0827 14.371 13.9685 14.6465 13.7654 14.8497C13.5622 15.0529 13.2867 15.167 12.9993 15.167C12.712 15.167 12.4365 15.0529 12.2333 14.8497C12.0302 14.6465 11.916 14.371 11.916 14.0837V7.58366C11.916 7.29634 12.0302 7.02079 12.2333 6.81763C12.4365 6.61446 12.712 6.50033 12.9993 6.50033Z" fill="#207EFF"/>
</svg>
