<svg width="30" height="30" viewBox="0 0 30 30" fill="none" xmlns="http://www.w3.org/2000/svg">
<path d="M15 13.75C16.3261 13.75 17.5979 13.2232 18.5355 12.2855C19.4732 11.3479 20 10.0761 20 8.75C20 7.42392 19.4732 6.15215 18.5355 5.21447C17.5979 4.27678 16.3261 3.75 15 3.75C13.6739 3.75 12.4021 4.27678 11.4645 5.21447C10.5268 6.15215 10 7.42392 10 8.75C10 10.0761 10.5268 11.3479 11.4645 12.2855C12.4021 13.2232 13.6739 13.75 15 13.75Z" fill="#7A7A7A" fill-opacity="0.65"/>
<path fill-rule="evenodd" clip-rule="evenodd" d="M9.72125 15C8.13758 15 6.61877 15.6291 5.49894 16.7489C4.37911 17.8688 3.75 19.3876 3.75 20.9713V26.25H26.25V20.9713C26.25 19.3876 25.6209 17.8688 24.5011 16.7489C23.3812 15.6291 21.8624 15 20.2787 15C19.9012 15 19.5287 15.0875 19.1912 15.2563L19.0525 15.3263C17.8377 15.9336 16.4982 16.2499 15.14 16.25H14.8612C13.5031 16.2499 12.1635 15.9336 10.9487 15.3263L10.8088 15.2563C10.4711 15.0874 10.0988 14.9996 9.72125 15ZM8.49375 17.7238C7.83448 17.9735 7.26677 18.418 6.86602 18.998C6.46527 19.578 6.25042 20.2662 6.25 20.9713V23.75H23.75V20.9713C23.75 19.2713 22.5287 17.8588 20.9163 17.5588C20.9988 17.9925 21.015 18.4163 20.9888 18.8138L20.9713 19.0625H21.305C21.4857 19.0627 21.6626 19.1144 21.8149 19.2116C21.9672 19.3088 22.0887 19.4475 22.165 19.6113L23.0288 21.4613C23.0962 21.606 23.1261 21.7655 23.1156 21.9249C23.1051 22.0842 23.0546 22.2384 22.9688 22.3731C22.8829 22.5078 22.7645 22.6187 22.6244 22.6955C22.4844 22.7723 22.3272 22.8125 22.1675 22.8125H20.8125V21.0625C20.8125 21.0461 20.8093 21.0298 20.803 21.0147C20.7967 20.9995 20.7875 20.9857 20.7759 20.9741C20.7643 20.9625 20.7505 20.9533 20.7353 20.947C20.7202 20.9407 20.7039 20.9375 20.6875 20.9375H19.375C19.3418 20.9375 19.3101 20.9507 19.2866 20.9741C19.2632 20.9976 19.25 21.0293 19.25 21.0625V22.8125H17.8325C17.6728 22.8125 17.5156 22.7723 17.3756 22.6955C17.2355 22.6187 17.1171 22.5078 17.0312 22.3731C16.9454 22.2384 16.8949 22.0842 16.8844 21.9249C16.8739 21.7655 16.9038 21.606 16.9712 21.4613L17.8337 19.6113C17.9102 19.4471 18.0321 19.3082 18.1849 19.211C18.3377 19.1137 18.5151 19.0622 18.6962 19.0625H19.0925L19.1175 18.6875C19.1331 18.4686 19.1255 18.2486 19.095 18.0313C17.8297 18.5066 16.4891 18.7501 15.1375 18.75H14.8588C13.3183 18.7498 11.7943 18.4333 10.3813 17.82C10.3063 18.1538 10.2962 18.49 10.33 18.815C10.3483 18.9842 10.3758 19.145 10.4125 19.2975C10.8078 19.4162 11.1529 19.662 11.3943 19.9968C11.6357 20.3315 11.7599 20.7366 11.7476 21.1492C11.7353 21.5617 11.5872 21.9587 11.3263 22.2785C11.0654 22.5984 10.7063 22.8232 10.3046 22.9181C9.90292 23.013 9.48115 22.9727 9.10469 22.8035C8.72823 22.6343 8.41813 22.3456 8.22247 21.9822C8.02681 21.6188 7.95653 21.2009 8.02253 20.7935C8.08853 20.3861 8.28712 20.0118 8.5875 19.7288C8.53271 19.4918 8.49181 19.2518 8.465 19.01C8.41863 18.5814 8.42787 18.1487 8.4925 17.7225" fill="#7A7A7A" fill-opacity="0.65"/>
</svg>
