<svg width="30" height="30" viewBox="0 0 30 30" fill="none" xmlns="http://www.w3.org/2000/svg">
<g clip-path="url(#clip0_1682_1269)">
<path fill-rule="evenodd" clip-rule="evenodd" d="M14.7744 2.41071C14.7744 1.91342 14.5769 1.43651 14.2253 1.08488C13.8736 0.73325 13.3967 0.535706 12.8994 0.535706C12.4022 0.535706 11.9252 0.73325 11.5736 1.08488C11.222 1.43651 11.0244 1.91342 11.0244 2.41071V9.60642C10.2946 9.8137 9.62892 10.2022 9.08944 10.7357C8.13373 11.6914 7.70301 13.0286 7.70301 14.5436C7.70301 16.0586 8.13373 17.3936 9.08944 18.3493C10.0473 19.305 11.3823 19.7336 12.8994 19.7336C13.2061 19.7369 13.5126 19.7183 13.8166 19.6778C16.313 21.7907 20.5216 23.6893 25.5959 23.6893C25.9511 23.6893 26.2917 23.5482 26.5429 23.297C26.7941 23.0458 26.9352 22.7052 26.9352 22.35C26.9352 21.9948 26.7941 21.6541 26.5429 21.403C26.2917 21.1518 25.9511 21.0107 25.5959 21.0107C21.848 21.0107 18.713 19.8193 16.6216 18.435L16.7094 18.3493C17.6652 17.3936 18.0959 16.0586 18.0959 14.5436C18.0959 13.0286 17.6673 11.6914 16.7094 10.7357C16.17 10.2022 15.5043 9.8137 14.7744 9.60642V2.41071ZM18.2352 2.52856C18.3113 2.36998 18.4179 2.22794 18.5489 2.11056C18.6799 1.99318 18.8327 1.90276 18.9987 1.84445C19.1646 1.78615 19.3405 1.76111 19.5161 1.77076C19.6917 1.78041 19.8637 1.82457 20.0223 1.90071C22.9216 3.29356 25.0494 5.83285 25.6109 9.7607C25.6452 9.99642 25.8294 10.425 26.2644 11.0893C26.5709 11.5586 26.9266 12.0343 27.3037 12.5464L27.7259 13.1143C28.2273 13.8 28.7694 14.5714 29.1037 15.3064C29.4037 15.9707 29.7659 17.1171 29.0394 18.1264C28.7537 18.5165 28.3802 18.834 27.9492 19.0532C27.5181 19.2725 27.0416 19.3873 26.558 19.3886C26.2028 19.3886 25.8622 19.2475 25.611 18.9963C25.3598 18.7451 25.2187 18.4045 25.2187 18.0493C25.2187 17.6941 25.3598 17.3534 25.611 17.1023C25.8622 16.8511 26.2028 16.71 26.558 16.71C26.6282 16.7073 26.6966 16.6875 26.7573 16.6521C26.7307 16.5703 26.6992 16.4902 26.663 16.4121C26.4594 15.9621 26.078 15.3964 25.5659 14.6978L25.1952 14.1986C24.803 13.6693 24.3787 13.0971 24.023 12.5571C23.5709 11.865 23.0823 11.0078 22.958 10.14C22.5273 7.11856 20.9759 5.32928 18.8652 4.31571C18.7064 4.23979 18.5641 4.13333 18.4465 4.00241C18.3289 3.87149 18.2383 3.71867 18.1798 3.5527C18.1213 3.38673 18.096 3.21085 18.1055 3.03512C18.1151 2.85939 18.1591 2.68726 18.2352 2.52856ZM7.22944 4.49356C7.38379 4.40914 7.52 4.29515 7.6303 4.15808C7.74059 4.02102 7.82281 3.86358 7.87226 3.69474C7.9217 3.5259 7.93741 3.34898 7.91848 3.17407C7.89956 2.99917 7.84636 2.8297 7.76194 2.67535C7.67752 2.521 7.56353 2.38479 7.42646 2.27449C7.2894 2.1642 7.13196 2.08198 6.96312 2.03253C6.62214 1.93267 6.25545 1.97235 5.94373 2.14285C2.35658 4.10999 0.535156 7.76356 0.535156 12.6921C0.535156 15.2421 0.869442 17.0443 1.45658 18.5636C1.95587 19.8707 2.63301 20.9271 3.29301 21.9621L3.56944 22.395C4.32587 23.5907 4.67301 25.0371 4.66873 26.5628L4.66658 28.1271C4.66658 28.4823 4.80769 28.823 5.05885 29.0742C5.31002 29.3253 5.65067 29.4664 6.00587 29.4664C6.36107 29.4664 6.70172 29.3253 6.95289 29.0742C7.20405 28.823 7.34516 28.4823 7.34516 28.1271V26.5693C7.35159 24.6493 6.91658 22.6757 5.8323 20.9614L5.5473 20.5114C4.87659 19.4614 4.35373 18.6407 3.95516 17.6036C3.51373 16.4593 3.21373 14.9957 3.21373 12.6921C3.21373 8.46642 4.71801 5.86928 7.22944 4.49356ZM18.6723 24.7628C19.4116 24.7628 20.0116 25.3628 20.0116 26.1021V28.125C20.0116 28.4802 19.8705 28.8208 19.6193 29.072C19.3682 29.3232 19.0275 29.4643 18.6723 29.4643C18.3171 29.4643 17.9764 29.3232 17.7253 29.072C17.4741 28.8208 17.333 28.4802 17.333 28.125V26.1021C17.333 25.3628 17.933 24.7628 18.6723 24.7628Z" fill="#7A7A7A" fill-opacity="0.65"/>
</g>
<defs>
<clipPath id="clip0_1682_1269">
<rect width="30" height="30" fill="white"/>
</clipPath>
</defs>
</svg>
