<svg width="35" height="35" viewBox="0 0 35 35" fill="none" xmlns="http://www.w3.org/2000/svg">
<path d="M17.6459 27.0521L17.5001 27.1979L17.3397 27.0521C10.4126 20.7667 5.83341 16.6104 5.83341 12.3958C5.83341 9.47917 8.02091 7.29167 10.9376 7.29167C13.1834 7.29167 15.3709 8.75 16.1438 10.7333H18.8563C19.6292 8.75 21.8167 7.29167 24.0626 7.29167C26.9792 7.29167 29.1667 9.47917 29.1667 12.3958C29.1667 16.6104 24.5876 20.7667 17.6459 27.0521ZM24.0626 4.375C21.5251 4.375 19.0897 5.55625 17.5001 7.40833C15.9105 5.55625 13.4751 4.375 10.9376 4.375C6.44591 4.375 2.91675 7.88958 2.91675 12.3958C2.91675 17.8938 7.87508 22.4 15.3855 29.2104L17.5001 31.1354L19.6147 29.2104C27.1251 22.4 32.0834 17.8938 32.0834 12.3958C32.0834 7.88958 28.5542 4.375 24.0626 4.375Z" fill="black"/>
</svg>
