<svg width="35" height="35" viewBox="0 0 35 35" fill="none" xmlns="http://www.w3.org/2000/svg">
<path d="M5.83325 30.625H27.7083M23.3333 13.125H29.1666V18.9583C29.1666 20.1187 28.7057 21.2315 27.8852 22.0519C27.0647 22.8724 25.9519 23.3333 24.7916 23.3333H22.4145C22.5753 22.7994 22.6789 22.25 22.7237 21.6942M23.3333 13.125H5.83325L6.44284 21.6942C6.61775 23.7327 7.5511 25.6315 9.05839 27.0151C10.5657 28.3987 12.5372 29.1665 14.5833 29.1667C18.7599 29.1667 22.3708 25.8271 22.7237 21.6942M23.3333 13.125L22.7237 21.6942M8.74992 5.83333V8.75M14.5833 4.375V8.75M20.4166 5.83333V8.75" stroke="#009947" stroke-width="2" stroke-linecap="square"/>
</svg>
