<svg width="36" height="35" viewBox="0 0 36 35" fill="none" xmlns="http://www.w3.org/2000/svg">
<path d="M12 7.29171C12 5.74461 12.6321 4.26088 13.7574 3.16692C14.8826 2.07296 16.4087 1.45837 18 1.45837C19.5913 1.45837 21.1174 2.07296 22.2426 3.16692C23.3679 4.26088 24 5.74461 24 7.29171V14.9552C25.8345 16.1971 27.2134 17.9758 27.9361 20.0324C28.6588 22.089 28.6876 24.3161 28.0182 26.3897C27.3488 28.4632 26.0161 30.275 24.2143 31.5612C22.4124 32.8475 20.2354 33.5411 18 33.5411C15.7646 33.5411 13.5876 32.8475 11.7857 31.5612C9.98385 30.275 8.65125 28.4632 7.98185 26.3897C7.31244 24.3161 7.34118 22.089 8.06388 20.0324C8.78658 17.9758 10.1655 16.1971 12 14.9552V7.29171ZM13.716 17.3469C12.4053 18.2337 11.4199 19.5041 10.9033 20.9732C10.3867 22.4422 10.3659 24.0332 10.8439 25.5146C11.3218 26.9959 12.2737 28.2903 13.5608 29.2092C14.8479 30.1281 16.4031 30.6237 18 30.6237C19.5969 30.6237 21.1521 30.1281 22.4392 29.2092C23.7263 28.2903 24.6782 26.9959 25.1561 25.5146C25.6341 24.0332 25.6133 22.4422 25.0967 20.9732C24.5801 19.5041 23.5947 18.2337 22.284 17.3469L21 16.4763V7.29171C21 6.51816 20.6839 5.77629 20.1213 5.22931C19.5587 4.68233 18.7956 4.37504 18 4.37504C17.2044 4.37504 16.4413 4.68233 15.8787 5.22931C15.3161 5.77629 15 6.51816 15 7.29171V16.4763L13.716 17.3469ZM16.5 17.6838V7.29171H19.5V17.6838C20.9107 18.0421 22.1391 18.8874 22.9557 20.0619C23.7723 21.2363 24.1214 22.6595 23.9377 24.0658C23.754 25.4721 23.0501 26.7653 21.9574 27.704C20.8648 28.6426 19.4581 29.1626 18 29.1667C16.5386 29.1681 15.1269 28.6509 14.0299 27.7122C12.9329 26.7735 12.226 25.4778 12.0419 24.0683C11.8578 22.6588 12.2091 21.2325 13.0299 20.0569C13.8507 18.8814 15.0846 18.0376 16.5 17.6838ZM18 26.25C18.7956 26.25 19.5587 25.9427 20.1213 25.3958C20.6839 24.8488 21 24.1069 21 23.3334C21 22.5598 20.6839 21.818 20.1213 21.271C19.5587 20.724 18.7956 20.4167 18 20.4167C17.2044 20.4167 16.4413 20.724 15.8787 21.271C15.3161 21.818 15 22.5598 15 23.3334C15 24.1069 15.3161 24.8488 15.8787 25.3958C16.4413 25.9427 17.2044 26.25 18 26.25Z" fill="#EF4444"/>
</svg>
