<svg width="20" height="20" viewBox="0 0 20 20" fill="none" xmlns="http://www.w3.org/2000/svg">
<path fill-rule="evenodd" clip-rule="evenodd" d="M18.3327 15.8337C18.3327 17.2144 17.2134 18.3337 15.8327 18.3337H4.16602C2.7853 18.3337 1.66602 17.2144 1.66602 15.8337V4.16699C1.66602 2.78628 2.7853 1.66699 4.16602 1.66699H15.8327C17.2134 1.66699 18.3327 2.78628 18.3327 4.16699V15.8337ZM9.16602 5.00033H14.166C14.6263 5.00033 14.9993 5.37342 14.9993 5.83366C14.9993 6.2939 14.6263 6.66699 14.166 6.66699H9.16602C8.70578 6.66699 8.33268 6.2939 8.33268 5.83366C8.33268 5.37342 8.70578 5.00033 9.16602 5.00033ZM6.66602 5.83366C6.6647 5.72476 6.64205 5.61718 6.59935 5.51699C6.55715 5.416 6.49796 5.32299 6.42435 5.24199C6.34335 5.16838 6.25034 5.10919 6.14935 5.06699C5.83902 4.93649 5.48065 5.00554 5.24102 5.24199C5.16741 5.32299 5.10822 5.416 5.06602 5.51699C5.02331 5.61718 5.00067 5.72476 4.99935 5.83366C4.99807 6.05516 5.08503 6.26806 5.24102 6.42533C5.40071 6.5776 5.61204 6.66392 5.83268 6.66699C5.942 6.66981 6.05045 6.64698 6.14935 6.60033C6.25034 6.55812 6.34335 6.49893 6.42435 6.42533C6.57663 6.26563 6.66295 6.0543 6.66602 5.83366ZM6.14935 9.23366C5.83902 9.10316 5.48065 9.1722 5.24102 9.40866C5.16385 9.48688 5.10419 9.58062 5.06602 9.68366C5.02331 9.78384 5.00067 9.89143 4.99935 10.0003C4.99807 10.2218 5.08503 10.4347 5.24102 10.592C5.40071 10.7443 5.61204 10.8306 5.83268 10.8337C5.94158 10.8323 6.04916 10.8097 6.14935 10.767C6.25034 10.7248 6.34335 10.6656 6.42435 10.592L6.52435 10.467C6.55589 10.4205 6.58111 10.3701 6.59935 10.317C6.62918 10.2707 6.65167 10.2201 6.66602 10.167C6.67011 10.1115 6.67011 10.0558 6.66602 10.0003C6.66295 9.77969 6.57663 9.56835 6.42435 9.40866C6.34335 9.33505 6.25034 9.27586 6.14935 9.23366ZM9.16602 9.16699H14.166C14.6263 9.16699 14.9993 9.54009 14.9993 10.0003C14.9993 10.4606 14.6263 10.8337 14.166 10.8337H9.16602C8.70578 10.8337 8.33268 10.4606 8.33268 10.0003C8.33268 9.54009 8.70578 9.16699 9.16602 9.16699ZM6.42435 13.5753C6.34335 13.5017 6.25034 13.4425 6.14935 13.4003C5.83902 13.2698 5.48065 13.3389 5.24102 13.5753C5.16515 13.6546 5.10568 13.748 5.06602 13.8503C4.97687 14.052 4.97687 14.282 5.06602 14.4837C5.10568 14.586 5.16515 14.6794 5.24102 14.7587C5.40071 14.9109 5.61204 14.9973 5.83268 15.0003C5.94158 14.999 6.04916 14.9764 6.14935 14.9337C6.25034 14.8915 6.34335 14.8323 6.42435 14.7587C6.50022 14.6794 6.55969 14.586 6.59935 14.4837C6.6885 14.282 6.6885 14.052 6.59935 13.8503C6.55969 13.748 6.50022 13.6546 6.42435 13.5753ZM9.16602 13.3337H14.166C14.6263 13.3337 14.9993 13.7068 14.9993 14.167C14.9993 14.6272 14.6263 15.0003 14.166 15.0003H9.16602C8.70578 15.0003 8.33268 14.6272 8.33268 14.167C8.33268 13.7068 8.70578 13.3337 9.16602 13.3337ZM15.8327 3.33366C16.2929 3.33366 16.666 3.70675 16.666 4.16699V15.8337C16.666 16.2939 16.2929 16.667 15.8327 16.667H4.16602C3.70578 16.667 3.33268 16.2939 3.33268 15.8337V4.16699C3.33268 3.70675 3.70578 3.33366 4.16602 3.33366H15.8327Z" fill="#4682FA"/>
</svg>
