<svg width="24" height="24" viewBox="0 0 24 24" fill="none" xmlns="http://www.w3.org/2000/svg">
<path fill-rule="evenodd" clip-rule="evenodd" d="M14.9232 2.91808C14.9115 3.29738 15.1156 3.65059 15.45 3.82997L18.45 5.82997C18.611 5.94276 18.8034 6.00221 19 5.99997C19.4386 5.99658 19.8237 5.70783 19.95 5.28782C20.0762 4.86781 19.914 4.41457 19.55 4.16997L16.55 2.16997C16.2545 1.93192 15.8497 1.88166 15.5049 2.0402C15.1601 2.19875 14.9348 2.53878 14.9232 2.91808ZM12 3.99997C7.02944 3.99997 3 8.0294 3 13C3 17.9705 7.02944 22 12 22C16.9706 22 21 17.9705 21 13C21 8.0294 16.9706 3.99997 12 3.99997ZM12 20C8.13401 20 5 16.866 5 13C5 9.13397 8.13401 5.99997 12 5.99997C15.866 5.99997 19 9.13397 19 13C19 16.866 15.866 20 12 20ZM4.17 5.54997C3.86875 5.09108 3.99373 4.47515 4.45 4.16997L7.45 2.16997C7.74553 1.93192 8.15033 1.88166 8.49511 2.0402C8.83988 2.19875 9.0652 2.53878 9.07683 2.91808C9.08847 3.29738 8.88441 3.65059 8.55 3.82997L5.55 5.82997C5.38896 5.94276 5.1966 6.00221 5 5.99997C4.66548 5.99824 4.35398 5.82935 4.17 5.54997ZM15.0058 15C15.0058 14.7333 14.8993 14.4777 14.71 14.29L13 12.59V8.99997C13 8.44768 12.5523 7.99997 12 7.99997C11.4477 7.99997 11 8.44768 11 8.99997V13C10.9985 13.2658 11.1028 13.5212 11.29 13.71L13.29 15.71C13.4778 15.8993 13.7334 16.0058 14 16.0058C14.2666 16.0058 14.5222 15.8993 14.71 15.71C14.8993 15.5222 15.0058 15.2666 15.0058 15Z" fill="#4682FA"/>
</svg>
