<svg width="39" height="49" viewBox="0 0 39 49" fill="none" xmlns="http://www.w3.org/2000/svg">
<path d="M16.5833 13.25H22.4167M16.5833 13.25C8.52919 13.25 2 18.2868 2 24.5V43C2 45.2092 4.98477 47 8.66666 47H30.3334C34.0154 47 37 45.2092 37 43V24.5C37 18.2868 30.4708 13.25 22.4167 13.25M16.5833 13.25H6.375C5.56959 13.25 4.91667 12.7463 4.91667 12.125V6.5C4.91667 4.01472 7.52834 2 10.75 2H28.25C31.4718 2 34.0833 4.01472 34.0833 6.5V12.125C34.0833 12.7463 33.4303 13.25 32.625 13.25H22.4167M19.5 26.75V31.25M19.5 31.25V35.75M19.5 31.25H25.3333M19.5 31.25H13.6667" stroke="#4682FA" stroke-width="4" stroke-miterlimit="2.20439" stroke-linecap="square"/>
</svg>
