<svg width="39" height="49" viewBox="0 0 39 49" fill="none" xmlns="http://www.w3.org/2000/svg">
<path d="M5.5 13.101H2M5.5 21.9817H2M8.99996 34.1928V37.5231C8.99996 42.4277 12.134 46.4039 16 46.4039C19.8659 46.4039 23 42.4277 23 37.5231V24.2019C23 20.5233 25.3504 17.5414 28.25 17.5414C31.1496 17.5414 33.5 20.5235 33.5 24.2019V25.312M36.496 39.849L33.6536 33.2195C33.5875 33.0647 33.4125 33.0647 33.3464 33.2195L30.504 39.849C30.1841 40.5603 30 41.3947 30 42.2868C30 44.8899 31.567 47 33.5 47C35.433 47 37 44.8899 37 42.2868C37 41.3947 36.8159 40.5603 36.496 39.849ZM12.2369 4.22019H12.5C14.433 4.22019 16 6.20822 16 8.66058V26.4221C16 28.8746 14.433 30.8625 12.5 30.8625H12.4538C12.2059 32.6294 10.9889 33.9708 9.525 33.9708H8.475C7.01109 33.9708 5.79414 32.6294 5.54618 30.8625H5.5C3.567 30.8625 2 28.8746 2 26.4221V8.66058C2 6.20822 3.567 4.22019 5.5 4.22019H5.76311C6.23001 2.91092 7.26865 2 8.475 2H9.525C10.7313 2 11.77 2.91092 12.2369 4.22019Z" stroke="#4682FA" stroke-width="4" stroke-linecap="round" stroke-linejoin="round"/>
</svg>
