<svg width="21" height="21" viewBox="0 0 21 21" fill="none" xmlns="http://www.w3.org/2000/svg">
<path d="M11.8924 3.5245C11.4189 3.051 11.4189 2.2833 11.8924 1.8098L12.9093 0.792897C13.2998 0.402368 13.933 0.402368 14.3235 0.792897L19.7929 6.26231C20.1834 6.65283 20.1834 7.28599 19.7929 7.67652L18.776 8.69342C18.3025 9.16692 17.5348 9.16692 17.0613 8.69342M11.8924 3.5245L4.12192 11.3011M11.8924 3.5245L17.0613 8.69342M17.0613 8.69342L14.4474 11.3011M4.12192 11.3011H14.4474M4.12192 11.3011L1.56073 13.8623C0.140228 15.2828 0.149548 17.5952 1.57004 19.0157C2.99054 20.4362 5.30294 20.4455 6.72344 19.025L14.4474 11.3011" stroke="#4682FA" stroke-linecap="round" stroke-linejoin="round"/>
</svg>
