<svg width="39" height="49" viewBox="0 0 39 49" fill="none" xmlns="http://www.w3.org/2000/svg">
<path d="M17.5556 2C15.4078 2 13.6667 4.23857 13.6667 6.99999V17H5.88888C3.74111 17 2 19.2386 2 22V27C2 29.7614 3.74111 31.9999 5.88888 31.9999H13.6667V42C13.6667 44.7615 15.4078 47 17.5556 47H21.4444C23.5922 47 25.3333 44.7615 25.3333 42V31.9999H33.1111C35.2589 31.9999 37 29.7614 37 27V22C37 19.2386 35.2589 17 33.1111 17H25.3333V6.99999C25.3333 4.23857 23.5922 2 21.4444 2H17.5556Z" stroke="#4682FA" stroke-width="4" stroke-linecap="round" stroke-linejoin="round"/>
</svg>
