<svg width="18" height="18" viewBox="0 0 18 18" fill="none" xmlns="http://www.w3.org/2000/svg">
<path d="M12 12.75V14.25H1.5V12.75C1.5 12.75 1.5 9.75003 6.75 9.75003C12 9.75003 12 12.75 12 12.75ZM9.375 5.62503C9.375 5.10585 9.22105 4.59833 8.93261 4.16666C8.64417 3.73498 8.2342 3.39852 7.75454 3.19984C7.27489 3.00116 6.74709 2.94918 6.23789 3.05047C5.72869 3.15175 5.26096 3.40176 4.89384 3.76887C4.52673 4.13599 4.27673 4.60372 4.17544 5.11292C4.07415 5.62212 4.12614 6.14992 4.32482 6.62957C4.5235 7.10923 4.85995 7.5192 5.29163 7.80764C5.72331 8.09607 6.23082 8.25003 6.75 8.25003C7.44619 8.25003 8.11387 7.97347 8.60616 7.48118C9.09844 6.9889 9.375 6.32122 9.375 5.62503ZM11.955 9.75003C12.4161 10.1068 12.7933 10.5604 13.0603 11.0787C13.3272 11.597 13.4773 12.1675 13.5 12.75V14.25H16.5V12.75C16.5 12.75 16.5 10.0275 11.955 9.75003ZM11.25 3.00003C10.7338 2.99763 10.2291 3.15193 9.8025 3.44253C10.2581 4.07908 10.503 4.84224 10.503 5.62503C10.503 6.40781 10.2581 7.17098 9.8025 7.80753C10.2291 8.09813 10.7338 8.25243 11.25 8.25003C11.9462 8.25003 12.6139 7.97347 13.1062 7.48118C13.5984 6.9889 13.875 6.32122 13.875 5.62503C13.875 4.92883 13.5984 4.26116 13.1062 3.76887C12.6139 3.27659 11.9462 3.00003 11.25 3.00003Z" fill="#EF4444"/>
</svg>
