<svg width="18" height="18" viewBox="0 0 18 18" fill="none" xmlns="http://www.w3.org/2000/svg">
<g clip-path="url(#clip0_1218_1343)">
<path d="M13.5 6.75H4.5C2.84315 6.75 1.5 8.09315 1.5 9.75V14.25C1.5 15.9069 2.84315 17.25 4.5 17.25H13.5C15.1569 17.25 16.5 15.9069 16.5 14.25V9.75C16.5 8.09315 15.1569 6.75 13.5 6.75Z" stroke="#A97007" stroke-width="2" stroke-linecap="round" stroke-linejoin="round"/>
<path d="M9 3.75C9.82843 3.75 10.5 3.07843 10.5 2.25C10.5 1.42157 9.82843 0.75 9 0.75C8.17157 0.75 7.5 1.42157 7.5 2.25C7.5 3.07843 8.17157 3.75 9 3.75Z" stroke="#A97007" stroke-width="2" stroke-linecap="round" stroke-linejoin="round"/>
<path d="M9 3.75V6.75M6.75 12.75V11.25M11.25 11.25V12.75" stroke="#A97007" stroke-width="2" stroke-linecap="round" stroke-linejoin="round"/>
</g>
<defs>
<clipPath id="clip0_1218_1343">
<rect width="18" height="18" fill="white"/>
</clipPath>
</defs>
</svg>
