<svg width="18" height="18" viewBox="0 0 18 18" fill="none" xmlns="http://www.w3.org/2000/svg">
<path fill-rule="evenodd" clip-rule="evenodd" d="M7.1355 2.25001C7.29733 2.25226 7.45409 2.30679 7.58237 2.40547C7.71065 2.50415 7.80357 2.64167 7.84725 2.79751L10.602 12.5925L12.048 8.73676C12.1016 8.59383 12.1975 8.47065 12.3229 8.38367C12.4484 8.2967 12.5974 8.25007 12.75 8.25001H15C15.1989 8.25001 15.3897 8.32903 15.5303 8.46968C15.671 8.61033 15.75 8.8011 15.75 9.00001C15.75 9.19892 15.671 9.38969 15.5303 9.53034C15.3897 9.67099 15.1989 9.75001 15 9.75001H13.2698L11.202 15.2633C11.1465 15.4113 11.0457 15.538 10.9139 15.6253C10.7821 15.7126 10.6261 15.756 10.4681 15.7494C10.3102 15.7427 10.1584 15.6863 10.0344 15.5883C9.9104 15.4902 9.82058 15.3554 9.77775 15.2033L7.0875 5.63551L5.9655 9.22351C5.91788 9.37604 5.82279 9.50938 5.69409 9.60409C5.56538 9.69879 5.40979 9.74992 5.25 9.75001H3C2.80109 9.75001 2.61032 9.67099 2.46967 9.53034C2.32902 9.38969 2.25 9.19892 2.25 9.00001C2.25 8.8011 2.32902 8.61033 2.46967 8.46968C2.61032 8.32903 2.80109 8.25001 3 8.25001H4.69875L6.40875 2.77651C6.457 2.62188 6.55402 2.48702 6.68529 2.39211C6.81656 2.29721 6.97504 2.24735 7.137 2.25001H7.1355Z" fill="#4682FA"/>
</svg>
