<svg width="28" height="28" viewBox="0 0 28 28" fill="none" xmlns="http://www.w3.org/2000/svg">
<path d="M23.3346 9.33325H4.66797C3.70147 9.33325 2.91797 10.1168 2.91797 11.0833V22.7499C2.91797 23.7164 3.70147 24.4999 4.66797 24.4999H23.3346C24.3011 24.4999 25.0846 23.7164 25.0846 22.7499V11.0833C25.0846 10.1168 24.3011 9.33325 23.3346 9.33325Z" stroke="#4682FA" stroke-width="2" stroke-linejoin="round"/>
<path d="M11.0846 4.66659H16.918V2.33325H11.0846V4.66659ZM17.5013 5.24992V9.33325H19.8346V5.24992H17.5013ZM10.5013 9.33325V5.24992H8.16797V9.33325H10.5013ZM16.918 4.66659C17.0727 4.66659 17.2211 4.72804 17.3304 4.83744C17.4398 4.94684 17.5013 5.09521 17.5013 5.24992H19.8346C19.8346 4.47637 19.5273 3.7345 18.9804 3.18752C18.4334 2.64054 17.6915 2.33325 16.918 2.33325V4.66659ZM11.0846 2.33325C10.3111 2.33325 9.56922 2.64054 9.02224 3.18752C8.47526 3.7345 8.16797 4.47637 8.16797 5.24992H10.5013C10.5013 5.09521 10.5628 4.94684 10.6722 4.83744C10.7816 4.72804 10.9299 4.66659 11.0846 4.66659V2.33325Z" fill="#4682FA"/>
<path d="M10.5 16.9165H17.5M14 13.4165V20.4165" stroke="#4682FA" stroke-width="2" stroke-linecap="round" stroke-linejoin="round"/>
</svg>
