<svg width="30" height="30" viewBox="0 0 30 30" fill="none" xmlns="http://www.w3.org/2000/svg">
<path fill-rule="evenodd" clip-rule="evenodd" d="M15 2.5C8.09647 2.5 2.5 8.09641 2.5 15C2.5 21.9035 8.09647 27.5 15 27.5C21.9036 27.5 27.5 21.9036 27.5 15C27.5 8.09641 21.9036 2.5 15 2.5ZM15 25C9.48602 25 5.00002 20.514 5.00002 15C5.00002 9.48596 9.48596 5.00002 15 5.00002C20.5141 5.00002 25 9.48596 25 15C25 20.514 20.5141 25 15 25ZM16.5653 10C16.5653 10.9063 15.9054 11.5625 15.0127 11.5625C14.0839 11.5625 13.4402 10.9063 13.4402 9.98266C13.4402 9.09496 14.1013 8.43754 15.0127 8.43754C15.9054 8.43754 16.5653 9.09496 16.5653 10ZM13.7528 13.75H16.2527V21.25H13.7528V13.75Z" fill="#4682FA"/>
</svg>
