<svg width="28" height="28" viewBox="0 0 28 28" fill="none" xmlns="http://www.w3.org/2000/svg">
<path d="M10.6264 6.35592C11.3241 4.31425 14.1451 4.25242 14.9723 6.17042L15.0423 6.35709L15.9838 9.11042C16.1995 9.74186 16.5482 10.3197 17.0063 10.8049C17.4643 11.2901 18.0211 11.6715 18.6391 11.9233L18.8923 12.0178L21.6456 12.9581C23.6873 13.6558 23.7491 16.4768 21.8323 17.3039L21.6456 17.3739L18.8923 18.3154C18.2606 18.531 17.6825 18.8797 17.1971 19.3377C16.7117 19.7958 16.3301 20.3527 16.0783 20.9708L15.9838 21.2228L15.0434 23.9773C14.3458 26.0189 11.5248 26.0808 10.6988 24.1639L10.6264 23.9773L9.68609 21.2239C9.47046 20.5923 9.12185 20.0142 8.66378 19.5288C8.20572 19.0433 7.64884 18.6618 7.03075 18.4099L6.77875 18.3154L4.02542 17.3751C1.98259 16.6774 1.92075 13.8564 3.83875 13.0304L4.02542 12.9581L6.77875 12.0178C7.41019 11.802 7.98802 11.4533 8.47325 10.9952C8.95848 10.5372 9.33983 9.98039 9.59159 9.36242L9.68609 9.11042L10.6264 6.35592ZM12.8349 7.10958L11.8946 9.86292C11.566 10.8258 11.0316 11.7054 10.3284 12.4407C9.62519 13.1759 8.77019 13.749 7.82292 14.1201L7.53125 14.2263L4.77792 15.1666L7.53125 16.1069C8.49411 16.4355 9.37377 16.9699 10.109 17.6731C10.8442 18.3763 11.4173 19.2313 11.7884 20.1786L11.8946 20.4703L12.8349 23.2236L13.7753 20.4703C14.1038 19.5074 14.6383 18.6277 15.3415 17.8925C16.0447 17.1573 16.8996 16.5842 17.8469 16.2131L18.1386 16.1081L20.8919 15.1666L18.1386 14.2263C17.1757 13.8977 16.2961 13.3632 15.5608 12.66C14.8256 11.9569 14.2525 11.1019 13.8814 10.1546L13.7764 9.86292L12.8349 7.10958ZM22.1683 2.33325C22.3865 2.33325 22.6004 2.39448 22.7856 2.50997C22.9708 2.62546 23.1199 2.79059 23.2159 2.98659L23.2719 3.12309L23.6803 4.32009L24.8784 4.72842C25.0971 4.80273 25.2889 4.9403 25.4294 5.1237C25.5698 5.3071 25.6527 5.52807 25.6674 5.75861C25.6822 5.98915 25.6281 6.21887 25.5122 6.41867C25.3962 6.61847 25.2236 6.77935 25.0161 6.88092L24.8784 6.93692L23.6814 7.34525L23.2731 8.54342C23.1986 8.76209 23.061 8.95373 22.8775 9.09408C22.694 9.23442 22.473 9.31714 22.2425 9.33176C22.012 9.34638 21.7823 9.29224 21.5826 9.17619C21.3828 9.06015 21.2221 8.88743 21.1206 8.67992L21.0646 8.54342L20.6563 7.34642L19.4581 6.93809C19.2394 6.86377 19.0476 6.7262 18.9072 6.5428C18.7667 6.3594 18.6838 6.13843 18.6691 5.90789C18.6544 5.67736 18.7084 5.44763 18.8243 5.24783C18.9403 5.04803 19.1129 4.88716 19.3204 4.78559L19.4581 4.72959L20.6551 4.32125L21.0634 3.12309C21.1421 2.89258 21.2909 2.69248 21.4891 2.55083C21.6872 2.40919 21.9247 2.33311 22.1683 2.33325Z" fill="#4682FA"/>
</svg>
